ply
format ascii 1.0
comment Created by Blender 2.93.3 - www.blender.org
element vertex 487
property float x
property float y
property float z
element face 900
property list uchar uint vertex_indices
end_header
0.594678 -0.189332 -0.501666
0.526785 -0.379951 0.135110
0.505391 -0.364503 -0.501666
0.366464 -0.503414 -0.501666
0.381928 -0.524931 0.135110
0.191186 -0.592823 -0.501666
-0.002958 -0.649834 0.135110
-0.002958 -0.623505 -0.501666
-0.205301 -0.617957 0.135110
-0.197209 -0.592823 -0.501666
-0.387844 -0.524931 0.135110
-0.372380 -0.503414 -0.501666
-0.532686 -0.379951 0.135110
-0.511306 -0.364503 -0.501666
-0.600578 -0.189332 -0.501666
-0.657711 0.004935 0.135110
-0.631382 0.004935 -0.501666
-0.625712 0.207140 0.135110
-0.600578 0.199171 -0.501666
-0.532686 0.389821 0.135110
-0.511306 0.374342 -0.501666
-0.387844 0.534525 0.135110
-0.372380 0.513283 -0.501666
-0.205301 0.627551 0.135110
-0.197209 0.602662 -0.501666
-0.002958 0.633344 -0.501666
-0.002958 0.659673 0.135110
0.191186 0.602662 -0.501666
0.199401 0.627551 0.135110
0.366464 0.513283 -0.501666
0.381928 0.534525 0.135110
0.505391 0.374342 -0.501666
0.526785 0.389821 0.135110
0.594678 0.199171 -0.501666
0.619796 0.207140 0.135110
0.625359 0.004935 -0.501666
0.651811 0.004935 0.135110
-0.002958 0.004935 -0.536333
0.337239 -0.105746 0.230542
-0.002958 0.004935 0.230542
0.286373 -0.205270 0.230542
0.207247 -0.284534 0.230542
0.107585 -0.335262 0.230542
-0.002958 -0.352672 0.230542
-0.113486 -0.335262 0.230542
-0.213148 -0.284534 0.230542
-0.292396 -0.205270 0.230542
-0.343139 -0.105501 0.230542
-0.360656 0.004935 0.230542
-0.343139 0.115340 0.230542
-0.292274 0.215110 0.230542
-0.213148 0.294373 0.230542
-0.113486 0.345101 0.230542
-0.002958 0.362511 0.230542
0.107585 0.345101 0.230542
0.207247 0.294373 0.230542
0.286373 0.215110 0.230542
0.337239 0.115586 0.230542
0.354633 0.004935 0.230542
0.520011 -0.164934 0.393989
0.286373 -0.205270 0.393989
0.441851 -0.318342 0.393989
0.207247 -0.284534 0.393989
0.320319 -0.439874 0.393989
0.166895 -0.518157 0.393989
0.107585 -0.335262 0.393989
-0.002958 -0.544977 0.393989
-0.113486 -0.335262 0.393989
-0.172933 -0.518157 0.393989
-0.213148 -0.284534 0.393989
-0.326220 -0.439874 0.393989
-0.447752 -0.318342 0.393989
-0.292274 -0.205270 0.393989
-0.525912 -0.164934 0.393989
-0.360656 0.004935 0.393989
-0.552854 0.004935 0.393989
-0.525912 0.174772 0.393989
-0.292274 0.215110 0.393989
-0.447752 0.328212 0.393989
-0.213148 0.294373 0.393989
-0.326220 0.449713 0.393989
-0.172933 0.527781 0.393989
-0.113486 0.345101 0.393989
-0.002958 0.554815 0.393989
0.107463 0.345101 0.393989
0.166895 0.527781 0.393989
0.207247 0.294373 0.393989
0.320319 0.449713 0.393989
0.441851 0.328212 0.393989
0.286373 0.215110 0.393989
0.520011 0.174772 0.393989
0.354756 0.004935 0.393867
0.546954 0.004935 0.393989
0.337239 -0.105501 0.393989
-0.002958 -0.352672 0.393989
-0.343139 -0.105501 0.393989
-0.343139 0.115340 0.393989
-0.002958 0.362511 0.393989
0.337239 0.115340 0.393989
-0.326235 -0.439874 0.135110
-0.447752 -0.318342 0.135110
-0.172933 -0.518157 0.135110
-0.002958 -0.544977 0.135110
0.166895 -0.518157 0.135110
0.320319 -0.439874 0.135110
0.441851 -0.318342 0.135110
0.520011 -0.164933 0.135110
0.546954 0.004935 0.135110
0.520011 0.174772 0.135110
0.441851 0.328212 0.135110
0.320319 0.449713 0.135110
0.166895 0.527781 0.135110
-0.002958 0.554815 0.135110
-0.172933 0.527781 0.135110
-0.326235 0.449713 0.135110
-0.447752 0.328212 0.135110
-0.525912 0.174772 0.135110
-0.552854 0.004935 0.135110
-0.525912 -0.164933 0.135110
0.619796 -0.197547 0.135110
-0.625712 -0.197547 0.135110
-0.130643 -0.087131 12.327398
-0.152872 -0.043641 8.551130
-0.152872 -0.043641 12.327398
-0.095973 -0.121923 12.462429
-0.130643 -0.087131 8.551130
-0.052241 -0.144151 12.327398
-0.095973 -0.121923 8.551130
-0.003797 -0.151883 12.462429
-0.052241 -0.144151 8.551130
0.044524 -0.144151 12.327398
-0.003797 -0.151883 8.551130
0.088256 -0.121923 12.462429
0.044524 -0.144151 8.551130
0.122926 -0.087131 12.327398
0.088256 -0.121923 8.551130
0.145156 -0.043641 12.327398
0.122926 -0.087131 8.551130
0.152888 0.004922 12.327398
0.145156 -0.043641 8.551130
0.145156 0.053244 12.327398
0.152888 0.004923 8.551130
0.122926 0.096976 12.327398
0.145156 0.053245 8.551130
0.088256 0.131768 12.462429
0.122926 0.096977 8.551130
0.044524 0.153996 12.327398
0.088256 0.131768 8.551130
-0.003797 0.161728 12.462429
0.044524 0.153996 8.551130
-0.052241 0.153996 12.327398
-0.003797 0.161728 8.551130
-0.095973 0.131768 12.462429
-0.052241 0.153996 8.551130
-0.130643 0.096976 12.327398
-0.095973 0.131768 8.551130
-0.152872 0.053244 12.327398
-0.130643 0.096977 8.551130
-0.160602 0.004922 12.327398
-0.152872 0.053245 8.551130
-0.160602 0.004923 8.551130
-0.130643 -0.087131 12.462429
-0.152872 -0.043641 12.462429
-0.003797 0.004922 12.462414
-0.052241 -0.144151 12.462429
0.044524 -0.144151 12.462429
0.122926 -0.087131 12.462429
0.145156 -0.043641 12.462429
0.152888 0.004922 12.462429
0.145156 0.053244 12.462429
0.122926 0.096976 12.462429
0.044524 0.153996 12.462429
-0.052241 0.153996 12.462429
-0.130643 0.096976 12.462429
-0.152872 0.053244 12.462429
-0.160602 0.004922 12.462429
-0.152872 -0.043641 -0.312328
-0.130643 -0.087131 -0.312328
-0.003797 0.004923 -0.312328
-0.095973 -0.121923 -0.312328
-0.052241 -0.144150 -0.312328
-0.003797 -0.151883 -0.312328
0.044524 -0.144150 -0.312328
0.088256 -0.121923 -0.312328
0.122926 -0.087131 -0.312328
0.145156 -0.043641 -0.312328
0.152888 0.004923 -0.312328
0.145156 0.053245 -0.312328
0.122926 0.096977 -0.312328
0.088256 0.131769 -0.312328
0.044524 0.153997 -0.312328
-0.003797 0.161729 -0.312328
-0.052241 0.153997 -0.312328
-0.095973 0.131769 -0.312328
-0.130643 0.096977 -0.312328
-0.152872 0.053245 -0.312328
-0.160602 0.004923 -0.312328
0.167631 0.004689 8.522861
0.161470 0.411061 8.752637
0.167631 0.004689 8.758430
0.159769 0.408180 8.515244
0.281300 0.801526 8.742967
0.258358 0.802231 8.506923
0.585007 1.073340 8.710476
0.534632 1.099915 8.479734
0.983180 1.118029 8.618293
0.920483 1.218289 8.411965
1.259346 0.894276 8.411000
1.252695 1.054489 8.235951
1.251730 0.597114 8.128075
1.298733 0.754630 7.959785
1.135026 0.327476 7.842606
1.173692 0.487659 7.674209
1.160159 0.032705 7.556539
1.111240 0.196044 7.391636
1.397062 -0.156720 7.279055
1.276006 -0.047755 7.106183
1.715864 -0.184244 7.021248
1.570302 -0.151876 6.837985
2.036245 -0.121440 6.772990
1.894897 -0.132321 6.585390
2.357346 -0.054988 6.526555
2.216120 -0.057165 6.339307
2.683151 -0.011035 6.280472
2.542908 -0.019249 6.092382
3.012222 -0.000644 6.035356
3.202136 -0.011035 5.602271
2.872223 -0.006437 5.846667
3.531574 -0.012475 5.358610
3.342150 -0.006437 5.791327
0.171247 0.412043 8.988451
0.167631 0.004935 8.994122
0.310542 0.795947 8.977816
0.643597 1.029601 8.936375
1.035134 0.996988 8.815809
1.244603 0.731458 8.582662
1.196037 0.443674 8.295506
1.122229 0.159784 8.008719
1.245937 -0.111785 7.725059
1.536356 -0.226543 7.458318
1.859265 -0.190068 7.207898
2.176014 -0.106452 6.961693
2.496747 -0.036873 6.715488
2.823166 -0.000644 6.469651
3.152236 0.004199 6.224779
3.482287 -0.007173 5.981118
3.671834 -0.008613 5.548033
0.182006 0.412043 9.224020
0.167631 0.004935 9.229691
0.344963 0.786783 9.212051
0.707259 0.969188 9.157446
1.073662 0.859732 9.006443
1.211868 0.568853 8.751672
1.143010 0.288580 8.461727
1.147470 -0.007173 8.175553
1.363591 -0.223876 7.900230
1.681673 -0.259155 7.643159
1.998912 -0.177501 7.396586
2.313132 -0.083034 7.150872
2.635566 -0.021426 6.904667
2.962812 0.007571 6.659197
3.292128 0.006621 6.414693
3.621811 -0.006192 6.171262
3.951969 -0.004506 5.928567
0.192397 0.412043 9.459344
0.167631 0.004935 9.465260
0.386403 0.771794 9.445444
0.771887 0.888974 9.372602
1.093233 0.708745 9.190074
1.165110 0.409621 8.917769
1.111240 0.125730 8.626630
1.218381 -0.157210 8.346372
1.502287 -0.293454 8.082405
1.824951 -0.256979 7.831970
2.133976 -0.146574 7.586378
2.448793 -0.054988 7.340295
2.773879 -0.009563 7.094336
3.101984 0.012413 6.849096
3.431299 0.001287 6.604960
3.761105 -0.009103 6.361652
4.091616 -0.002575 6.119324
0.203386 0.411552 9.694791
0.167631 0.004935 9.700952
0.435936 0.747642 9.677396
0.832055 0.786537 9.580508
1.087808 0.546601 9.365123
1.099271 0.254036 9.079654
1.117524 -0.041226 8.794062
1.329890 -0.271232 8.525160
1.648217 -0.318833 8.270372
1.962437 -0.228964 8.022604
2.265408 -0.103571 7.776169
2.583858 -0.024552 7.529597
2.911119 0.006375 7.284005
3.240557 0.015785 7.039256
3.569750 -0.003770 6.795472
3.900154 -0.010054 6.552408
4.230787 0.001287 6.310311
0.216075 0.410602 9.930237
0.167631 0.004935 9.936521
0.493805 0.709940 9.906682
0.880499 0.660408 9.778867
1.058566 0.382311 9.532800
1.058321 0.092382 9.243346
1.179485 -0.191018 8.968758
1.466763 -0.335262 8.711319
1.790653 -0.305561 8.461252
2.093256 -0.182099 8.213239
2.395644 -0.056214 7.965471
2.718799 0.003954 7.718775
3.047992 0.024245 7.473551
3.378028 0.010973 7.229400
3.708063 -0.006437 6.985969
4.038467 -0.003280 6.743151
4.369591 0.006130 6.501421
0.232381 0.408640 10.166051
0.167631 0.004935 10.172090
0.559398 0.651949 10.131140
0.907916 0.511107 9.964919
1.007103 0.220442 9.694668
1.061463 -0.072643 9.412708
1.287975 -0.299738 9.152250
1.610639 -0.349760 8.902429
1.925349 -0.264704 8.652975
2.218420 -0.121195 8.403015
2.526831 -0.011494 8.154159
2.854338 0.026421 7.908076
3.184987 0.022559 7.663450
3.515145 0.007111 7.419666
3.845779 -0.001839 7.176481
4.176427 0.003463 6.933908
4.508041 0.008306 6.692423
0.256657 0.404533 10.402356
0.167631 0.004935 10.407782
0.627888 0.567137 10.347138
0.908759 0.349453 10.140075
0.967594 0.057102 9.858728
1.122597 -0.217838 9.592477
1.422794 -0.352917 9.343253
1.749565 -0.324872 9.094995
2.050498 -0.201654 8.843242
2.342480 -0.057165 8.591244
2.660194 0.026666 8.342740
2.990842 0.036076 8.097623
3.321491 0.022804 7.853364
3.652140 0.005180 7.609811
3.983142 0.001532 7.366870
4.314265 0.006621 7.124542
4.646002 0.008061 6.883287
0.293990 0.394633 10.638768
0.167508 0.004935 10.643351
0.689619 0.450693 10.550815
0.886537 0.186358 10.308119
0.980161 -0.103080 10.032321
1.232772 -0.313776 9.781778
1.562685 -0.351201 9.537259
1.877870 -0.266420 9.286349
2.167676 -0.122881 9.030964
2.468961 0.003003 8.778721
2.795994 0.050574 8.531566
3.127118 0.039478 8.287046
3.457874 0.018697 8.043263
3.788890 0.000582 7.799848
4.120259 0.003954 7.557137
4.451506 0.009747 7.315054
4.783718 0.011432 7.073922
0.349438 0.371215 10.873616
0.167508 0.004935 10.878935
0.730584 0.306695 10.740974
0.856821 0.022559 10.475076
1.047578 -0.238865 10.218602
1.366625 -0.347584 9.977715
1.694117 -0.303385 9.730315
1.993241 -0.181608 9.473475
2.284856 -0.042422 9.216649
2.601374 0.046007 8.966459
2.932376 0.059034 8.720990
3.263377 0.036811 8.476716
3.593781 0.008061 8.232932
3.925395 0.001777 7.989869
4.257009 0.009747 7.747297
4.588731 0.016030 7.505444
4.920958 0.017716 7.264311
0.421069 0.321928 11.103148
0.167386 0.004935 11.114504
0.742906 0.151569 10.920605
0.877603 -0.132076 10.651933
1.164022 -0.313531 10.414433
1.500479 -0.314726 10.172948
1.808277 -0.213976 9.916474
2.101118 -0.083034 9.656262
2.408564 0.025931 9.402088
2.736914 0.070895 9.155163
3.068528 0.052995 8.910521
3.398564 0.018697 8.666263
3.730178 0.000092 8.422585
4.062145 0.005394 8.179661
4.394004 0.015080 7.937318
4.725848 0.016276 7.695588
5.058060 0.014835 7.454455
0.495613 0.228166 11.321076
0.167141 0.004935 11.350073
0.718738 -0.014897 11.091669
0.956115 -0.251677 10.847885
1.297997 -0.305776 10.613879
1.614516 -0.223171 10.358985
1.907955 -0.099463 10.095017
2.215033 0.006375 9.838069
2.540118 0.069670 9.589335
2.873066 0.071110 9.344463
3.203102 0.032214 9.099592
3.534103 0.004689 8.855563
3.866437 0.001532 8.612132
4.198649 0.010237 8.369314
4.530877 0.013609 8.127216
4.862721 0.010237 7.885487
5.195178 0.007325 7.644492
0.538494 0.102037 11.525121
0.166895 0.005180 11.585519
0.748224 -0.160827 11.269613
1.084298 -0.274144 11.049508
1.411070 -0.210359 10.798230
1.704875 -0.092444 10.530401
2.014130 0.006865 10.271645
2.341269 0.065562 10.023141
2.675182 0.079325 9.778269
3.007149 0.050359 9.533275
3.337798 0.012659 9.288526
3.670378 -0.001594 9.044620
4.002957 0.003003 8.801434
4.335414 0.008551 8.558861
4.667749 0.008061 8.316886
5.000084 0.007325 8.075401
5.332296 0.007325 7.834514
0.524486 -0.060567 11.709456
0.167631 0.005180 11.820966
0.849940 -0.215661 11.485980
1.194106 -0.173639 11.235545
1.488632 -0.062743 10.962045
1.804906 0.024980 10.702553
2.137715 0.071600 10.455627
2.474035 0.084658 10.211231
2.808545 0.063631 9.966604
3.140650 0.029333 9.721488
3.473337 0.003218 9.477106
3.806637 0.000827 9.233553
4.139707 0.003954 8.990612
4.472517 0.005639 8.748407
4.805097 0.007571 8.506678
5.137431 0.008061 8.265423
5.469536 0.012413 8.024535
0.568210 -0.107187 11.906130
0.168596 0.004444 12.056182
0.937755 -0.090023 11.663434
1.250764 -0.007387 11.387283
1.585397 0.056857 11.131898
1.927632 0.082482 10.888115
2.268304 0.084413 10.644331
2.606324 0.070650 10.399690
2.940958 0.039478 10.154465
3.274978 0.011677 9.909823
3.609244 0.002758 9.665917
3.943157 0.003003 9.422625
4.276335 0.005394 9.180036
4.609635 0.008551 8.938076
4.942337 0.010237 8.696576
5.274794 0.013609 8.455566
5.607129 0.018452 8.214925
0.646018 0.036076 12.018726
0.171002 0.004689 12.290051
1.356710 0.099156 11.546132
0.993693 0.075953 11.778683
1.710669 0.093363 11.310196
2.057256 0.078620 11.069324
2.399261 0.065317 10.826261
2.738002 0.046466 10.582707
3.074566 0.022314 10.338923
3.410165 0.004199 10.095631
3.745273 0.000091 9.852690
4.413207 0.006375 9.368494
4.079539 0.001287 9.610347
5.079685 0.013149 8.886245
4.746507 0.010237 9.127132
5.744844 0.018452 8.405437
5.412387 0.016030 8.645726
0.199401 -0.617957 0.135110
3.811955 -0.003770 5.738055
3 0 1 2
3 1 3 2
3 4 5 3
3 5 6 7
3 7 8 9
3 9 10 11
3 11 12 13
3 12 14 13
3 14 15 16
3 16 17 18
3 18 19 20
3 20 21 22
3 22 23 24
3 23 25 24
3 26 27 25
3 28 29 27
3 30 31 29
3 32 33 31
3 34 35 33
3 36 0 35
3 2 37 0
3 3 37 2
3 5 37 3
3 7 37 5
3 9 37 7
3 11 37 9
3 13 37 11
3 14 37 13
3 16 37 14
3 18 37 16
3 20 37 18
3 22 37 20
3 24 37 22
3 25 37 24
3 27 37 25
3 29 37 27
3 31 37 29
3 33 37 31
3 35 37 33
3 0 37 35
3 38 39 40
3 40 39 41
3 41 39 42
3 42 39 43
3 43 39 44
3 44 39 45
3 45 39 46
3 46 39 47
3 47 39 48
3 48 39 49
3 49 39 50
3 50 39 51
3 51 39 52
3 52 39 53
3 53 39 54
3 54 39 55
3 55 39 56
3 56 39 57
3 57 39 58
3 58 39 38
3 59 60 61
3 61 62 63
3 62 64 63
3 65 66 64
3 66 67 68
3 68 69 70
3 69 71 70
3 72 73 71
3 73 74 75
3 74 76 75
3 76 77 78
3 78 79 80
3 79 81 80
3 82 83 81
3 83 84 85
3 85 86 87
3 86 88 87
3 89 90 88
3 90 91 92
3 91 59 92
3 38 60 93
3 40 62 60
3 41 65 62
3 42 94 65
3 43 67 94
3 44 69 67
3 45 72 69
3 46 95 72
3 47 74 95
3 48 96 74
3 49 77 96
3 50 79 77
3 51 82 79
3 52 97 82
3 53 84 97
3 54 86 84
3 55 89 86
3 89 57 98
3 98 58 91
3 58 93 91
3 99 71 100
3 101 70 99
3 66 101 102
3 64 102 103
3 63 103 104
3 61 104 105
3 59 105 106
3 92 106 107
3 90 107 108
3 88 108 109
3 87 109 110
3 85 110 111
3 83 111 112
3 81 112 113
3 80 113 114
3 78 114 115
3 76 115 116
3 75 116 117
3 73 117 118
3 71 118 100
3 105 119 106
3 104 1 105
3 103 4 104
3 6 103 102
3 101 6 102
3 10 101 99
3 12 99 100
3 120 100 118
3 15 118 117
3 17 117 116
3 19 116 115
3 21 115 114
3 113 21 114
3 112 23 113
3 28 112 111
3 110 28 111
3 109 30 110
3 108 32 109
3 107 34 108
3 106 36 107
3 121 122 123
3 124 125 121
3 126 127 124
3 128 129 126
3 130 131 128
3 132 133 130
3 134 135 132
3 136 137 134
3 138 139 136
3 140 141 138
3 142 143 140
3 144 145 142
3 146 147 144
3 148 149 146
3 150 151 148
3 152 153 150
3 154 155 152
3 156 157 154
3 158 159 156
3 123 160 158
3 161 162 163
3 124 161 163
3 164 124 163
3 128 164 163
3 165 128 163
3 132 165 163
3 166 132 163
3 167 166 163
3 168 167 163
3 169 168 163
3 170 169 163
3 144 170 163
3 171 144 163
3 148 171 163
3 172 148 163
3 152 172 163
3 173 152 163
3 174 173 163
3 175 174 163
3 162 175 163
3 176 177 178
3 177 179 178
3 179 180 178
3 180 181 178
3 181 182 178
3 182 183 178
3 183 184 178
3 184 185 178
3 185 186 178
3 186 187 178
3 187 188 178
3 188 189 178
3 189 190 178
3 190 191 178
3 191 192 178
3 192 193 178
3 193 194 178
3 194 195 178
3 195 196 178
3 196 176 178
3 131 180 129
3 129 179 127
3 127 177 125
3 125 176 122
3 122 196 160
3 160 195 159
3 159 194 157
3 157 193 155
3 155 192 153
3 153 191 151
3 151 190 149
3 149 189 147
3 147 188 145
3 145 187 143
3 143 186 141
3 141 185 139
3 139 184 137
3 137 183 135
3 135 182 133
3 133 181 131
3 123 161 121
3 124 164 126
3 128 165 130
3 132 166 134
3 134 167 136
3 136 168 138
3 138 169 140
3 140 170 142
3 144 171 146
3 148 172 150
3 152 173 154
3 154 174 156
3 156 175 158
3 158 162 123
3 197 198 199
3 200 201 198
3 202 203 201
3 204 205 203
3 206 207 205
3 208 209 207
3 210 211 209
3 212 213 211
3 214 215 213
3 216 217 215
3 218 219 217
3 220 221 219
3 222 223 221
3 224 225 223
3 226 225 227
3 228 229 226
3 199 230 231
3 198 232 230
3 201 233 232
3 203 234 233
3 205 235 234
3 207 236 235
3 209 237 236
3 211 238 237
3 213 239 238
3 215 240 239
3 217 241 240
3 219 242 241
3 221 243 242
3 223 244 243
3 225 245 244
3 246 245 229
3 231 247 248
3 230 249 247
3 232 250 249
3 233 251 250
3 234 252 251
3 235 253 252
3 236 254 253
3 237 255 254
3 238 256 255
3 239 257 256
3 240 258 257
3 241 259 258
3 242 260 259
3 243 261 260
3 244 262 261
3 245 263 262
3 248 264 265
3 247 266 264
3 249 267 266
3 250 268 267
3 251 269 268
3 252 270 269
3 253 271 270
3 254 272 271
3 255 273 272
3 256 274 273
3 257 275 274
3 258 276 275
3 259 277 276
3 260 278 277
3 261 279 278
3 262 280 279
3 265 281 282
3 264 283 281
3 266 284 283
3 267 285 284
3 268 286 285
3 269 287 286
3 270 288 287
3 271 289 288
3 272 290 289
3 273 291 290
3 274 292 291
3 275 293 292
3 276 294 293
3 277 295 294
3 278 296 295
3 279 297 296
3 282 298 299
3 281 300 298
3 283 301 300
3 284 302 301
3 285 303 302
3 286 304 303
3 287 305 304
3 288 306 305
3 289 307 306
3 290 308 307
3 291 309 308
3 292 310 309
3 293 311 310
3 294 312 311
3 295 313 312
3 296 314 313
3 299 315 316
3 298 317 315
3 300 318 317
3 301 319 318
3 302 320 319
3 303 321 320
3 304 322 321
3 305 323 322
3 306 324 323
3 307 325 324
3 308 326 325
3 309 327 326
3 310 328 327
3 311 329 328
3 312 330 329
3 313 331 330
3 316 332 333
3 315 334 332
3 317 335 334
3 318 336 335
3 319 337 336
3 320 338 337
3 321 339 338
3 322 340 339
3 323 341 340
3 324 342 341
3 325 343 342
3 326 344 343
3 327 345 344
3 328 346 345
3 329 347 346
3 330 348 347
3 333 349 350
3 332 351 349
3 334 352 351
3 335 353 352
3 336 354 353
3 337 355 354
3 338 356 355
3 339 357 356
3 340 358 357
3 341 359 358
3 342 360 359
3 343 361 360
3 344 362 361
3 345 363 362
3 346 364 363
3 347 365 364
3 350 366 367
3 349 368 366
3 351 369 368
3 352 370 369
3 353 371 370
3 354 372 371
3 355 373 372
3 356 374 373
3 357 375 374
3 358 376 375
3 359 377 376
3 360 378 377
3 361 379 378
3 362 380 379
3 363 381 380
3 364 382 381
3 367 383 384
3 366 385 383
3 368 386 385
3 369 387 386
3 370 388 387
3 371 389 388
3 372 390 389
3 373 391 390
3 374 392 391
3 375 393 392
3 376 394 393
3 377 395 394
3 378 396 395
3 379 397 396
3 380 398 397
3 381 399 398
3 384 400 401
3 383 402 400
3 385 403 402
3 386 404 403
3 387 405 404
3 388 406 405
3 389 407 406
3 390 408 407
3 391 409 408
3 392 410 409
3 393 411 410
3 394 412 411
3 395 413 412
3 396 414 413
3 397 415 414
3 398 416 415
3 401 417 418
3 400 419 417
3 402 420 419
3 403 421 420
3 404 422 421
3 405 423 422
3 406 424 423
3 407 425 424
3 408 426 425
3 409 427 426
3 410 428 427
3 411 429 428
3 412 430 429
3 413 431 430
3 414 432 431
3 415 433 432
3 418 434 435
3 417 436 434
3 419 437 436
3 420 438 437
3 421 439 438
3 422 440 439
3 423 441 440
3 424 442 441
3 425 443 442
3 426 444 443
3 427 445 444
3 428 446 445
3 429 447 446
3 430 448 447
3 431 449 448
3 432 450 449
3 435 451 452
3 434 453 451
3 436 454 453
3 437 455 454
3 438 456 455
3 439 457 456
3 440 458 457
3 441 459 458
3 442 460 459
3 443 461 460
3 444 462 461
3 445 463 462
3 446 464 463
3 447 465 464
3 448 466 465
3 449 467 466
3 452 468 469
3 453 468 451
3 453 470 471
3 455 470 454
3 456 472 455
3 457 473 456
3 458 474 457
3 459 475 458
3 460 476 459
3 461 477 460
3 462 478 461
3 462 479 480
3 464 479 463
3 464 481 482
3 466 481 465
3 466 483 484
3 0 119 1
3 1 4 3
3 4 485 5
3 5 485 6
3 7 6 8
3 9 8 10
3 11 10 12
3 12 120 14
3 14 120 15
3 16 15 17
3 18 17 19
3 20 19 21
3 22 21 23
3 23 26 25
3 26 28 27
3 28 30 29
3 30 32 31
3 32 34 33
3 34 36 35
3 36 119 0
3 59 93 60
3 61 60 62
3 62 65 64
3 65 94 66
3 66 94 67
3 68 67 69
3 69 72 71
3 72 95 73
3 73 95 74
3 74 96 76
3 76 96 77
3 78 77 79
3 79 82 81
3 82 97 83
3 83 97 84
3 85 84 86
3 86 89 88
3 89 98 90
3 90 98 91
3 91 93 59
3 38 40 60
3 40 41 62
3 41 42 65
3 42 43 94
3 43 44 67
3 44 45 69
3 45 46 72
3 46 47 95
3 47 48 74
3 48 49 96
3 49 50 77
3 50 51 79
3 51 52 82
3 52 53 97
3 53 54 84
3 54 55 86
3 55 56 89
3 89 56 57
3 98 57 58
3 58 38 93
3 99 70 71
3 101 68 70
3 66 68 101
3 64 66 102
3 63 64 103
3 61 63 104
3 59 61 105
3 92 59 106
3 90 92 107
3 88 90 108
3 87 88 109
3 85 87 110
3 83 85 111
3 81 83 112
3 80 81 113
3 78 80 114
3 76 78 115
3 75 76 116
3 73 75 117
3 71 73 118
3 105 1 119
3 104 4 1
3 103 485 4
3 6 485 103
3 101 8 6
3 10 8 101
3 12 10 99
3 120 12 100
3 15 120 118
3 17 15 117
3 19 17 116
3 21 19 115
3 113 23 21
3 112 26 23
3 28 26 112
3 110 30 28
3 109 32 30
3 108 34 32
3 107 36 34
3 106 119 36
3 121 125 122
3 124 127 125
3 126 129 127
3 128 131 129
3 130 133 131
3 132 135 133
3 134 137 135
3 136 139 137
3 138 141 139
3 140 143 141
3 142 145 143
3 144 147 145
3 146 149 147
3 148 151 149
3 150 153 151
3 152 155 153
3 154 157 155
3 156 159 157
3 158 160 159
3 123 122 160
3 131 181 180
3 129 180 179
3 127 179 177
3 125 177 176
3 122 176 196
3 160 196 195
3 159 195 194
3 157 194 193
3 155 193 192
3 153 192 191
3 151 191 190
3 149 190 189
3 147 189 188
3 145 188 187
3 143 187 186
3 141 186 185
3 139 185 184
3 137 184 183
3 135 183 182
3 133 182 181
3 123 162 161
3 121 161 124
3 126 164 128
3 130 165 132
3 134 166 167
3 136 167 168
3 138 168 169
3 140 169 170
3 142 170 144
3 146 171 148
3 150 172 152
3 154 173 174
3 156 174 175
3 158 175 162
3 197 200 198
3 200 202 201
3 202 204 203
3 204 206 205
3 206 208 207
3 208 210 209
3 210 212 211
3 212 214 213
3 214 216 215
3 216 218 217
3 218 220 219
3 220 222 221
3 222 224 223
3 224 227 225
3 226 229 225
3 228 246 229
3 199 198 230
3 198 201 232
3 201 203 233
3 203 205 234
3 205 207 235
3 207 209 236
3 209 211 237
3 211 213 238
3 213 215 239
3 215 217 240
3 217 219 241
3 219 221 242
3 221 223 243
3 223 225 244
3 225 229 245
3 246 486 245
3 231 230 247
3 230 232 249
3 232 233 250
3 233 234 251
3 234 235 252
3 235 236 253
3 236 237 254
3 237 238 255
3 238 239 256
3 239 240 257
3 240 241 258
3 241 242 259
3 242 243 260
3 243 244 261
3 244 245 262
3 245 486 263
3 248 247 264
3 247 249 266
3 249 250 267
3 250 251 268
3 251 252 269
3 252 253 270
3 253 254 271
3 254 255 272
3 255 256 273
3 256 257 274
3 257 258 275
3 258 259 276
3 259 260 277
3 260 261 278
3 261 262 279
3 262 263 280
3 265 264 281
3 264 266 283
3 266 267 284
3 267 268 285
3 268 269 286
3 269 270 287
3 270 271 288
3 271 272 289
3 272 273 290
3 273 274 291
3 274 275 292
3 275 276 293
3 276 277 294
3 277 278 295
3 278 279 296
3 279 280 297
3 282 281 298
3 281 283 300
3 283 284 301
3 284 285 302
3 285 286 303
3 286 287 304
3 287 288 305
3 288 289 306
3 289 290 307
3 290 291 308
3 291 292 309
3 292 293 310
3 293 294 311
3 294 295 312
3 295 296 313
3 296 297 314
3 299 298 315
3 298 300 317
3 300 301 318
3 301 302 319
3 302 303 320
3 303 304 321
3 304 305 322
3 305 306 323
3 306 307 324
3 307 308 325
3 308 309 326
3 309 310 327
3 310 311 328
3 311 312 329
3 312 313 330
3 313 314 331
3 316 315 332
3 315 317 334
3 317 318 335
3 318 319 336
3 319 320 337
3 320 321 338
3 321 322 339
3 322 323 340
3 323 324 341
3 324 325 342
3 325 326 343
3 326 327 344
3 327 328 345
3 328 329 346
3 329 330 347
3 330 331 348
3 333 332 349
3 332 334 351
3 334 335 352
3 335 336 353
3 336 337 354
3 337 338 355
3 338 339 356
3 339 340 357
3 340 341 358
3 341 342 359
3 342 343 360
3 343 344 361
3 344 345 362
3 345 346 363
3 346 347 364
3 347 348 365
3 350 349 366
3 349 351 368
3 351 352 369
3 352 353 370
3 353 354 371
3 354 355 372
3 355 356 373
3 356 357 374
3 357 358 375
3 358 359 376
3 359 360 377
3 360 361 378
3 361 362 379
3 362 363 380
3 363 364 381
3 364 365 382
3 367 366 383
3 366 368 385
3 368 369 386
3 369 370 387
3 370 371 388
3 371 372 389
3 372 373 390
3 373 374 391
3 374 375 392
3 375 376 393
3 376 377 394
3 377 378 395
3 378 379 396
3 379 380 397
3 380 381 398
3 381 382 399
3 384 383 400
3 383 385 402
3 385 386 403
3 386 387 404
3 387 388 405
3 388 389 406
3 389 390 407
3 390 391 408
3 391 392 409
3 392 393 410
3 393 394 411
3 394 395 412
3 395 396 413
3 396 397 414
3 397 398 415
3 398 399 416
3 401 400 417
3 400 402 419
3 402 403 420
3 403 404 421
3 404 405 422
3 405 406 423
3 406 407 424
3 407 408 425
3 408 409 426
3 409 410 427
3 410 411 428
3 411 412 429
3 412 413 430
3 413 414 431
3 414 415 432
3 415 416 433
3 418 417 434
3 417 419 436
3 419 420 437
3 420 421 438
3 421 422 439
3 422 423 440
3 423 424 441
3 424 425 442
3 425 426 443
3 426 427 444
3 427 428 445
3 428 429 446
3 429 430 447
3 430 431 448
3 431 432 449
3 432 433 450
3 435 434 451
3 434 436 453
3 436 437 454
3 437 438 455
3 438 439 456
3 439 440 457
3 440 441 458
3 441 442 459
3 442 443 460
3 443 444 461
3 444 445 462
3 445 446 463
3 446 447 464
3 447 448 465
3 448 449 466
3 449 450 467
3 452 451 468
3 453 471 468
3 453 454 470
3 455 472 470
3 456 473 472
3 457 474 473
3 458 475 474
3 459 476 475
3 460 477 476
3 461 478 477
3 462 480 478
3 462 463 479
3 464 482 479
3 464 465 481
3 466 484 481
3 466 467 483
