ply
format ascii 1.0
comment Created by Blender 2.93.3 - www.blender.org
element vertex 331
property float x
property float y
property float z
element face 658
property list uchar uint vertex_indices
end_header
0.046297 -0.024994 0.077286
0.062145 -0.021947 0.067012
0.049979 -0.007998 0.078964
0.008531 -0.077161 0.053131
0.022799 -0.078579 0.045952
0.019541 -0.068341 0.060775
0.066923 -0.007692 0.065137
0.066742 0.010298 0.065162
0.053400 0.005339 0.077085
0.083079 -0.043225 0.004977
0.089776 -0.026911 0.004937
0.083851 -0.035686 0.021018
0.075920 0.055212 0.003407
0.067349 0.064265 0.013986
0.077291 0.046301 0.025073
0.041022 0.022194 0.081632
0.026539 0.005521 0.089756
0.041756 0.004823 0.083405
-0.032521 0.024235 0.084961
-0.046639 0.005734 0.081445
-0.026779 0.006548 0.089350
0.006442 0.077520 0.052683
-0.008601 0.066219 0.065806
0.008935 0.064301 0.067319
-0.024391 0.078168 0.045695
-0.019195 0.069534 0.059816
-0.006476 0.078507 0.051084
-0.062121 0.023660 0.066667
-0.046774 0.030653 0.075460
-0.076918 0.053019 0.007269
-0.076814 0.046007 0.029021
-0.068348 0.060740 0.019552
-0.089242 0.028637 0.004756
-0.084336 0.035866 0.019557
-0.082766 0.042785 0.007252
-0.078164 -0.050674 0.008437
-0.068184 -0.061846 0.018281
-0.077291 -0.046301 0.025073
0.058238 -0.000640 -0.073269
0.051999 -0.016417 -0.076263
0.039146 -0.007684 -0.084981
0.083822 -0.035722 -0.020954
0.091211 -0.022089 -0.008593
0.082072 -0.044544 -0.005384
0.084634 0.032769 -0.024537
0.083701 0.042609 0.001371
0.089350 0.026779 -0.006548
0.075438 0.046820 -0.030676
0.066690 0.062401 -0.022682
0.078729 0.049944 -0.007454
0.050054 0.006749 -0.079468
0.046407 0.022787 -0.078208
0.059869 0.019266 -0.069497
0.008911 0.064335 -0.067251
-0.010129 0.061895 -0.070159
-0.002672 0.076212 -0.054866
-0.026781 0.006548 -0.089353
-0.042646 0.001388 -0.083685
-0.032536 0.024310 -0.084939
0.024011 0.008304 -0.090227
0.036501 0.021755 -0.083598
-0.019196 0.069532 -0.059813
-0.022219 0.081656 -0.040986
-0.055186 0.003353 -0.075944
-0.064518 0.013295 -0.067114
-0.047357 0.024045 -0.077230
-0.084947 0.032230 -0.025038
-0.090755 0.022458 -0.008692
-0.081599 0.045697 -0.006671
-0.064260 -0.013995 -0.067353
-0.049944 -0.007451 -0.078731
-0.046299 -0.025074 -0.077288
-0.060813 -0.071277 0.010169
-0.074709 -0.056596 -0.001850
-0.064317 -0.067284 -0.008924
0.060811 -0.071283 0.010121
0.060937 -0.071028 -0.009267
0.075408 -0.055902 0.002994
0.004698 -0.084041 0.040827
0.004873 -0.089793 0.026927
0.019645 -0.084355 0.035827
0.020987 0.083838 -0.035705
0.005718 0.081195 -0.046921
-0.000028 0.089677 -0.028158
0.065089 0.066995 -0.007731
-0.005521 0.089753 0.026535
-0.018443 0.083902 0.036787
-0.001394 0.083486 0.042789
-0.006440 0.082723 -0.043479
-0.007528 -0.084234 0.041146
-0.000708 -0.073431 0.058249
-0.007957 -0.079137 -0.049884
0.011563 -0.076681 -0.053086
0.003878 -0.083275 -0.042653
0.076407 -0.052711 -0.012916
-0.075198 0.055869 -0.002723
-0.083094 -0.043089 -0.000138
-0.076763 -0.051982 -0.014133
-0.039006 -0.009091 0.084781
-0.053821 -0.004239 0.076463
0.022407 -0.009568 0.091024
0.035900 -0.010575 0.086027
0.008697 -0.006791 0.093137
0.003536 0.009292 0.093598
-0.007924 -0.004639 0.093285
-0.017886 0.011638 0.091293
-0.022459 -0.009583 0.090995
0.009159 -0.060681 0.071512
0.018901 -0.045837 0.079850
0.029823 -0.056571 0.068573
0.040688 -0.038667 0.075398
0.031573 -0.024358 0.085364
-0.008699 -0.065275 0.066886
-0.016943 -0.074009 0.055219
-0.027654 -0.059359 0.067385
-0.017972 -0.052042 0.075894
-0.027752 -0.036200 0.081921
-0.037877 -0.045300 0.072947
-0.046801 -0.033255 0.074534
-0.037371 -0.022437 0.082980
-0.053251 -0.017263 0.075229
0.075780 -0.047073 0.030341
0.075644 -0.052505 0.016525
0.079459 -0.032784 0.038186
0.075801 -0.017852 0.052229
0.069866 -0.033183 0.053108
0.037325 -0.080061 0.032153
0.034912 -0.070143 0.052187
0.051591 -0.068765 0.037490
0.051652 -0.075320 0.021147
0.066138 -0.062332 0.024158
0.085348 0.031591 0.024427
0.086036 0.035421 0.011160
0.078053 0.035060 0.039056
0.071374 0.026140 0.055258
0.057719 0.015832 0.072494
0.075948 0.003507 0.055459
0.093630 -0.003220 -0.008945
0.090330 -0.019525 0.017937
0.093481 0.003847 0.010168
0.091293 0.017886 -0.011638
0.090996 0.022460 0.009612
0.024665 0.066597 0.061932
0.017519 0.074977 0.053444
0.022731 0.054452 0.073246
0.052356 0.034203 0.070117
0.031615 0.038192 0.079830
0.053583 0.073949 0.022241
0.066504 0.058076 0.032662
0.031857 0.083498 0.029326
0.048770 0.069842 0.039234
0.030298 0.075752 0.047125
0.011677 0.085237 0.036558
-0.032612 0.066514 0.058074
-0.034560 0.052184 0.070281
-0.011224 0.057787 0.073051
-0.023942 0.040309 0.081656
-0.088063 0.023208 0.023803
-0.080224 0.029090 0.038805
-0.073855 0.013404 0.056510
-0.069780 0.035144 0.052769
-0.062987 0.000424 0.069155
-0.023672 0.088089 0.023152
-0.039759 0.077295 0.035719
-0.055322 0.071840 0.025006
-0.060776 0.071427 0.009253
-0.068413 0.064090 -0.000257
-0.084811 -0.037075 0.017947
-0.077321 -0.035539 0.039908
-0.088080 -0.023165 0.023826
-0.066238 -0.027868 0.060685
-0.080655 -0.018251 0.044243
-0.071483 -0.009114 0.060698
-0.092951 0.009905 0.007322
-0.093370 0.004832 -0.008167
-0.092974 -0.009664 0.007325
-0.093174 -0.008750 -0.006645
-0.091033 -0.022470 -0.009447
-0.089355 -0.026750 0.006569
-0.086023 -0.035786 -0.010590
-0.030295 -0.075754 0.047124
-0.041714 -0.075574 0.036566
-0.030348 -0.083892 0.029534
-0.044197 -0.080672 0.018226
-0.059384 -0.067310 0.028304
-0.022407 -0.009568 -0.091024
-0.035268 -0.010913 -0.086131
-0.008697 -0.006791 -0.093137
-0.017880 0.011650 -0.091318
0.003572 0.009336 -0.093589
0.004783 -0.008325 -0.093331
0.022459 -0.009583 -0.090995
-0.024115 -0.066140 -0.062658
-0.009937 -0.060657 -0.071186
-0.001777 -0.068629 -0.063315
-0.027081 -0.075865 -0.048982
-0.018930 -0.051478 -0.076091
-0.037725 -0.050843 -0.069377
-0.028984 -0.038818 -0.080260
-0.052239 -0.034879 -0.070107
-0.031573 -0.024358 -0.085364
0.010116 -0.060822 -0.071280
0.024565 -0.066626 -0.061965
0.020319 -0.053579 -0.074289
0.037574 -0.051554 -0.068715
0.035723 -0.039783 -0.077290
0.031687 -0.024384 -0.085343
0.046839 -0.031256 -0.074663
0.075765 -0.047101 -0.030289
0.079830 -0.031615 -0.038192
0.073246 -0.022731 -0.054452
0.061932 -0.024665 -0.066597
0.067319 -0.008935 -0.064301
0.010788 -0.085946 -0.035910
0.024418 -0.085315 -0.031723
0.037455 -0.081406 -0.027791
0.039503 -0.074970 -0.039588
0.031808 -0.073948 -0.048042
0.056752 -0.068478 -0.029695
0.048071 -0.078128 -0.019829
0.067462 -0.062480 -0.018190
0.075636 0.036513 -0.041644
0.078839 0.019401 -0.047717
0.068573 0.029823 -0.056571
0.071517 0.009158 -0.060675
0.055421 0.076001 -0.003569
0.053108 0.069866 -0.033183
0.041631 0.074641 -0.038624
0.043309 0.081176 -0.019856
0.030341 0.075780 -0.047073
0.027594 0.085228 -0.027734
0.017905 0.075123 -0.053079
0.024666 0.066638 -0.061871
0.016732 0.054239 -0.074925
0.037491 0.051591 -0.068764
0.041394 0.038203 -0.075401
0.027641 0.036407 -0.081868
-0.029693 0.056751 -0.068483
-0.019714 0.047963 -0.078190
-0.036245 0.038829 -0.077543
-0.041665 0.075598 -0.036541
-0.023763 0.088093 -0.023136
-0.034797 0.070090 -0.052274
-0.055703 0.069266 -0.029927
-0.043268 0.081192 -0.019881
-0.057237 0.073789 -0.009745
-0.066085 0.062397 -0.024153
-0.074977 0.053444 -0.017519
-0.076031 0.046324 -0.030272
-0.080226 0.029086 -0.038806
-0.067310 0.028304 -0.059384
-0.075895 0.017976 -0.052046
-0.069842 0.039234 -0.048770
-0.085364 -0.031573 -0.024358
-0.075319 -0.042561 -0.036912
-0.081733 -0.019995 -0.041421
-0.071526 -0.026162 -0.055080
-0.076013 -0.003639 -0.055418
-0.015353 -0.084994 -0.036729
-0.041631 -0.074641 -0.038624
-0.041067 -0.081461 -0.023174
-0.053108 -0.069866 -0.033183
-0.056520 -0.074150 -0.009853
-0.066628 -0.061884 -0.024643
-0.008646 -0.091206 0.022120
-0.006672 -0.093185 0.008721
0.017989 -0.090299 0.019568
0.009368 -0.093586 -0.003682
-0.004542 -0.093310 -0.007963
-0.009501 -0.091028 -0.022489
0.009606 -0.091048 -0.020348
0.009583 0.090995 0.022459
0.008325 0.093331 0.004783
-0.007318 0.092955 0.009904
-0.007322 0.092978 -0.009665
0.007517 0.092883 -0.013090
-0.018410 -0.021984 0.089325
0.005123 -0.025168 0.090842
-0.010203 -0.038783 0.085182
0.000389 -0.047848 0.081070
0.051060 -0.049045 0.062433
0.058425 -0.057975 0.045772
0.087660 0.010272 0.033499
0.086907 -0.009928 0.034938
0.045871 0.057344 0.059325
0.062281 0.049773 0.050157
0.019881 0.021823 0.089373
-0.006460 0.026073 0.090261
0.010203 0.038783 0.085182
-0.000892 0.049053 0.080267
-0.052215 0.047962 0.061982
-0.052598 0.062830 0.046369
-0.064934 0.054570 0.040687
-0.084494 0.005147 0.041788
-0.090846 -0.003555 0.024626
-0.059252 -0.045916 0.057370
-0.044737 -0.062126 0.054440
-0.059985 -0.058585 0.043277
0.011685 -0.027485 -0.088981
0.006711 -0.040959 -0.084519
-0.011069 -0.028171 -0.088930
-0.008525 -0.038913 -0.084954
0.066963 -0.054593 -0.036561
0.059325 -0.045871 -0.057344
0.049353 -0.061909 -0.051150
0.089325 -0.018410 -0.021984
0.090261 0.006460 -0.026073
0.085182 -0.010203 -0.038783
0.080267 0.000892 -0.049053
0.062433 0.051060 -0.049045
0.045044 0.061539 -0.055209
0.055006 0.041783 -0.063957
0.005062 0.041764 -0.084501
-0.010204 0.027854 -0.089354
0.013463 0.025434 -0.089631
-0.057344 0.059325 -0.045871
-0.046321 0.052675 -0.062801
-0.055637 0.041544 -0.063566
-0.087489 0.010760 -0.033356
-0.088068 -0.010011 -0.031834
-0.062433 -0.051060 -0.049045
-0.045772 -0.058425 -0.057975
-0.021994 -0.089322 -0.018493
-0.042299 -0.084063 -0.003568
-0.025284 -0.090815 0.005047
0.042142 -0.084133 0.005329
0.026098 -0.090259 -0.006467
0.033441 0.087681 0.010208
0.031834 0.088068 -0.010011
-0.041788 0.084494 0.005147
-0.024626 0.090846 -0.003555
3 0 1 2
3 3 4 5
3 6 7 8
3 9 10 11
3 12 13 14
3 15 16 17
3 18 19 20
3 21 22 23
3 24 25 26
3 27 19 28
3 29 30 31
3 32 33 34
3 35 36 37
3 38 39 40
3 41 42 43
3 44 45 46
3 47 48 49
3 50 51 52
3 53 54 55
3 56 57 58
3 50 59 60
3 61 62 55
3 63 64 65
3 66 67 68
3 63 69 64
3 70 71 69
3 72 73 74
3 75 76 77
3 78 79 80
3 81 82 83
3 12 84 13
3 85 86 87
3 88 62 83
3 89 3 90
3 91 92 93
3 77 94 43
3 9 77 43
3 12 45 49
3 21 87 26
3 55 88 82
3 29 95 68
3 73 35 96
3 97 73 96
3 17 2 8
3 98 19 99
3 63 57 70
3 40 50 38
3 100 101 17
3 16 100 17
3 102 100 16
3 103 102 16
3 102 103 104
3 104 105 20
3 106 104 20
3 106 20 19
3 98 106 19
3 3 5 90
3 5 107 90
3 108 107 5
3 109 108 5
3 108 109 110
3 111 110 0
3 111 0 2
3 101 111 2
3 112 113 90
3 113 112 114
3 112 115 114
3 115 116 117
3 114 115 117
3 118 117 119
3 117 116 119
3 120 119 98
3 11 121 122
3 9 11 122
3 123 121 11
3 123 124 125
3 124 6 1
3 125 124 1
3 8 2 1
3 6 8 1
3 78 80 4
3 3 78 4
3 4 80 126
3 127 4 126
3 128 126 129
3 129 75 130
3 130 75 77
3 122 130 77
3 131 132 45
3 14 131 45
3 12 14 45
3 133 131 14
3 134 135 7
3 136 134 7
3 8 7 135
3 42 10 9
3 43 42 9
3 137 138 10
3 42 137 10
3 139 140 46
3 141 139 46
3 141 46 45
3 132 141 45
3 142 143 21
3 23 142 21
3 144 142 23
3 145 146 15
3 135 15 17
3 147 148 13
3 149 150 147
3 143 151 152
3 21 143 152
3 26 25 22
3 153 154 155
3 25 153 155
3 22 25 155
3 28 18 156
3 18 28 19
3 30 29 34
3 33 30 34
3 33 157 30
3 157 158 30
3 159 160 158
3 27 160 159
3 19 27 161
3 26 87 86
3 24 26 86
3 162 163 24
3 86 162 24
3 164 165 31
3 166 95 29
3 165 166 29
3 31 165 29
3 37 167 35
3 168 169 37
3 169 167 37
3 170 171 168
3 172 120 99
3 161 172 99
3 68 67 32
3 34 68 32
3 173 32 67
3 174 173 67
3 175 173 174
3 176 175 174
3 176 177 178
3 175 176 178
3 178 177 96
3 167 178 96
3 177 179 96
3 180 89 113
3 180 181 182
3 183 182 181
3 184 183 181
3 72 184 36
3 72 36 35
3 73 72 35
3 185 186 57
3 56 185 57
3 187 185 56
3 188 187 56
3 187 189 190
3 190 189 59
3 191 190 59
3 191 59 40
3 192 193 194
3 195 192 194
3 91 195 194
3 192 196 193
3 196 197 198
3 198 199 71
3 200 198 71
3 186 200 70
3 57 186 70
3 200 71 70
3 201 202 92
3 194 201 92
3 202 201 203
3 204 203 205
3 205 206 207
3 206 40 39
3 208 41 43
3 94 208 43
3 208 209 41
3 210 211 212
3 212 211 38
3 211 39 38
3 213 93 92
3 214 213 92
3 215 214 216
3 214 217 216
3 216 218 219
3 215 216 219
3 219 218 220
3 76 219 220
3 76 220 94
3 77 76 94
3 45 44 49
3 44 47 49
3 221 47 44
3 222 223 221
3 52 223 222
3 224 52 222
3 52 224 38
3 50 52 38
3 48 84 12
3 49 48 12
3 225 84 48
3 226 225 48
3 227 228 226
3 227 229 81
3 230 227 81
3 229 231 82
3 81 229 82
3 231 232 55
3 82 231 55
3 232 53 55
3 232 233 53
3 234 235 233
3 235 236 233
3 235 51 60
3 236 235 60
3 50 60 51
3 54 61 55
3 237 61 54
3 238 237 54
3 239 237 238
3 58 65 239
3 65 58 57
3 63 65 57
3 55 62 88
3 240 241 62
3 242 240 62
3 243 244 240
3 245 243 246
3 246 247 95
3 166 246 95
3 247 248 68
3 248 66 68
3 249 66 248
3 250 251 249
3 252 250 249
3 251 250 64
3 179 253 97
3 254 255 256
3 256 257 69
3 70 69 63
3 258 195 91
3 259 195 258
3 260 259 258
3 259 260 261
3 261 262 74
3 263 261 74
3 263 74 73
3 97 263 73
3 264 79 78
3 89 264 78
3 265 266 79
3 264 265 79
3 267 265 268
3 268 269 270
3 267 268 270
3 269 258 93
3 213 269 93
3 271 85 87
3 152 271 87
3 272 273 85
3 271 272 85
3 274 273 272
3 275 274 272
3 274 275 83
3 82 88 83
3 276 106 98
3 119 276 98
3 104 106 276
3 277 104 276
3 278 276 116
3 277 100 102
3 277 278 279
3 279 278 115
3 100 111 101
3 111 277 108
3 279 107 108
3 107 279 112
3 90 107 112
3 110 1 0
3 1 280 125
3 125 281 123
3 281 121 123
3 127 280 109
3 121 130 122
3 130 281 128
3 128 281 127
3 126 128 127
3 4 127 5
3 136 7 6
3 282 134 136
3 283 136 124
3 282 131 133
3 138 283 123
3 131 141 132
3 141 282 139
3 139 283 138
3 10 138 11
3 15 135 145
3 284 146 145
3 285 145 134
3 284 142 144
3 148 285 133
3 142 151 143
3 151 284 150
3 150 285 148
3 147 150 148
3 13 148 14
3 286 16 15
3 286 287 103
3 288 286 146
3 103 287 105
3 288 289 287
3 289 288 144
3 105 18 20
3 287 156 18
3 155 156 289
3 155 289 23
3 22 155 23
3 24 153 25
3 290 154 153
3 291 153 163
3 154 290 28
3 291 292 290
3 292 291 164
3 290 160 27
3 30 160 292
3 30 292 31
3 32 157 33
3 293 158 157
3 294 157 173
3 169 294 175
3 159 172 161
3 172 293 171
3 171 294 169
3 168 171 169
3 167 169 178
3 170 118 120
3 118 295 117
3 117 296 114
3 296 295 297
3 297 295 168
3 114 180 113
3 297 181 296
3 181 180 296
3 184 297 37
3 36 184 37
3 206 191 40
3 191 298 190
3 205 299 298
3 206 205 298
3 300 185 187
3 190 300 187
3 298 299 301
3 300 298 301
3 203 201 299
3 185 200 186
3 198 200 300
3 301 198 300
3 301 299 196
3 299 193 196
3 193 201 194
3 302 208 94
3 220 302 94
3 209 208 302
3 303 209 302
3 304 302 218
3 303 211 210
3 217 304 216
3 39 211 207
3 303 204 205
3 207 303 205
3 304 202 204
3 92 202 217
3 305 42 41
3 306 137 305
3 137 42 305
3 307 305 209
3 137 306 140
3 307 308 306
3 308 307 210
3 140 44 46
3 306 222 44
3 224 222 308
3 38 224 212
3 224 308 212
3 48 309 226
3 221 309 47
3 226 310 227
3 310 229 227
3 310 309 311
3 311 309 223
3 229 232 231
3 232 310 234
3 234 311 235
3 51 235 52
3 235 311 52
3 233 54 53
3 54 312 238
3 238 313 58
3 239 238 58
3 313 312 314
3 314 312 236
3 58 188 56
3 313 189 188
3 314 59 189
3 314 60 59
3 242 62 61
3 315 240 242
3 316 242 237
3 315 246 243
3 315 316 317
3 317 316 239
3 246 248 247
3 248 315 252
3 252 317 250
3 64 250 65
3 250 317 65
3 67 318 174
3 66 249 318
3 319 177 176
3 174 319 176
3 257 318 251
3 177 253 179
3 253 319 255
3 255 319 257
3 256 255 257
3 69 257 64
3 254 263 97
3 263 320 261
3 321 195 259
3 261 321 259
3 199 320 256
3 192 321 197
3 197 321 199
3 199 69 71
3 269 322 258
3 322 323 260
3 268 324 322
3 269 268 322
3 260 323 262
3 264 324 265
3 262 72 74
3 72 323 183
3 183 324 182
3 182 264 89
3 76 325 219
3 75 129 325
3 326 214 215
3 219 326 215
3 266 325 126
3 214 270 213
3 270 326 267
3 267 326 266
3 79 266 80
3 149 271 152
3 271 327 272
3 272 328 275
3 225 327 147
3 275 230 81
3 83 275 81
3 328 228 230
3 228 328 225
3 225 13 84
3 85 162 86
3 329 163 162
3 330 162 273
3 329 165 164
3 241 330 274
3 165 245 166
3 329 244 245
3 244 330 241
3 241 83 62
3 120 98 99
3 9 122 77
3 21 152 87
3 26 22 21
3 19 161 99
3 40 59 50
3 91 194 92
3 95 247 68
3 179 97 96
3 93 258 91
3 276 119 116
3 102 104 277
3 277 276 278
3 278 116 115
3 111 100 277
3 108 277 279
3 279 115 112
3 17 101 2
3 110 111 108
3 280 1 110
3 281 125 280
3 280 110 109
3 130 121 281
3 281 280 127
3 127 109 5
3 129 130 128
3 136 6 124
3 133 134 282
3 282 136 283
3 283 124 123
3 141 131 282
3 139 282 283
3 138 123 11
3 137 139 138
3 145 135 134
3 144 146 284
3 284 145 285
3 285 134 133
3 151 142 284
3 150 284 285
3 148 133 14
3 149 151 150
3 103 16 286
3 286 15 146
3 105 104 103
3 287 286 288
3 288 146 144
3 18 105 287
3 156 287 289
3 289 144 23
3 154 156 155
3 153 24 163
3 28 156 154
3 290 153 291
3 291 163 164
3 27 28 290
3 160 290 292
3 292 164 31
3 158 160 30
3 29 68 34
3 157 32 173
3 159 158 293
3 293 157 294
3 294 173 175
3 161 27 159
3 172 159 293
3 171 293 294
3 169 175 178
3 170 172 171
3 119 120 118
3 120 172 170
3 295 118 170
3 296 117 295
3 295 170 168
3 180 114 296
3 297 168 37
3 90 113 89
3 181 297 184
3 298 191 206
3 300 190 298
3 299 205 203
3 200 185 300
3 193 299 201
3 198 301 196
3 302 220 218
3 210 209 303
3 303 302 304
3 304 218 216
3 207 211 303
3 204 303 304
3 202 304 217
3 92 217 214
3 206 39 207
3 203 204 202
3 305 41 209
3 140 139 137
3 306 305 307
3 307 209 210
3 44 140 306
3 222 306 308
3 308 210 212
3 221 44 222
3 309 48 47
3 310 226 309
3 309 221 223
3 232 229 310
3 234 310 311
3 311 223 52
3 233 232 234
3 312 54 233
3 313 238 312
3 312 233 236
3 188 58 313
3 189 313 314
3 314 236 60
3 189 187 188
3 242 61 237
3 243 240 315
3 315 242 316
3 316 237 239
3 248 246 315
3 252 315 317
3 317 239 65
3 249 248 252
3 318 67 66
3 319 174 318
3 318 249 251
3 253 177 319
3 319 318 257
3 257 251 64
3 254 253 255
3 97 253 254
3 320 263 254
3 321 261 320
3 320 254 256
3 192 195 321
3 321 320 199
3 199 256 69
3 197 196 192
3 199 198 197
3 260 258 322
3 262 261 260
3 323 322 324
3 324 268 265
3 72 262 323
3 183 323 324
3 182 324 264
3 183 184 72
3 89 180 182
3 325 76 75
3 326 219 325
3 325 129 126
3 270 214 326
3 326 325 266
3 266 126 80
3 269 213 270
3 265 267 266
3 78 3 89
3 152 151 149
3 327 271 149
3 328 272 327
3 327 149 147
3 230 275 328
3 328 327 225
3 225 147 13
3 228 227 230
3 225 226 228
3 162 85 273
3 164 163 329
3 329 162 330
3 330 273 274
3 245 165 329
3 244 329 330
3 241 274 83
3 245 246 166
3 244 243 245
3 241 240 244
3 8 135 17
3 96 35 167
