ply
format ascii 1.0
comment Created by Blender 2.93.3 - www.blender.org
element vertex 359
property float x
property float y
property float z
element face 714
property list uchar uint vertex_indices
end_header
-2.603202 -0.000656 -0.190584
-2.603202 0.000656 0.190597
-2.368270 -0.001010 -0.293244
-1.912748 -0.001628 -0.472832
-2.136937 -0.001341 -0.389442
-2.136937 -0.510932 -0.387688
-1.912748 -0.511219 -0.471077
-2.368269 -0.510601 -0.291490
-2.603202 -0.508935 0.192350
-1.899100 -0.507876 0.499942
-1.699338 -0.001849 -0.536989
-1.699337 -0.511440 -0.535234
-2.603202 -0.510248 -0.188830
-0.950529 0.002070 0.601144
2.160633 -0.507522 0.602900
2.160633 0.002070 0.601146
-0.959184 -0.507522 0.602892
-1.508655 0.002070 0.601144
-1.001553 -0.002070 -0.601146
-1.198073 0.002070 0.601153
-1.500261 -0.001981 -0.575490
-1.279629 -0.002047 -0.594723
-1.500261 -0.511573 -0.573736
-1.001552 -0.511661 -0.599391
-1.663507 -0.507522 0.602890
-1.389849 -0.507522 0.602907
-1.279629 -0.511639 -0.592969
-1.663467 0.002070 0.601137
-1.663443 -0.256240 0.602054
2.358330 -0.508202 0.405203
2.358330 -0.000234 -0.067858
1.825040 -0.511661 -0.599391
1.825040 -0.002070 -0.601146
2.358330 -0.509825 -0.066104
-1.399270 -0.246506 3.183769
-3.097229 -0.163264 9.485975
-3.088629 -0.224800 9.488509
-1.431473 -0.127221 3.174722
-1.407871 -0.184969 3.181239
-4.719019 -0.141513 15.551173
-4.710310 -0.203920 15.553711
-3.120816 -0.105552 9.479463
-1.467932 -0.077285 3.164794
-3.204497 -0.017159 9.456732
-3.157322 -0.055580 9.469529
-4.827811 0.006659 15.521488
-4.779947 -0.032306 15.534469
-4.742969 -0.083002 15.544549
-7.612055 0.069052 25.971121
-6.269139 -0.005892 21.119808
-6.319000 0.034704 21.106277
-7.516544 -0.031849 25.997053
-7.558167 0.025193 25.985716
-6.230601 -0.058728 21.130295
-7.479821 -0.167931 26.007357
-6.205672 -0.119669 21.137182
-7.489618 -0.097687 26.004499
-6.196599 -0.184689 21.139837
-1.570950 -0.015800 3.136965
-1.515139 -0.038864 3.151995
-1.631003 -0.008162 3.120822
-3.260308 0.005905 9.441703
-3.320365 0.013543 9.425600
-4.884384 0.030013 15.506274
-1.691092 -0.015910 3.104767
-3.436270 -0.017372 9.394644
-3.380458 0.005794 9.409514
-5.006239 0.029901 15.473615
-4.945312 0.037759 15.489919
-7.876523 0.068808 25.900251
-6.504903 0.058918 21.056406
-6.563836 0.034478 21.040670
-7.744289 0.104057 25.935549
-7.812837 0.095212 25.917215
-5.062849 0.006443 15.458529
-6.441435 0.067105 21.073362
-6.377967 0.059035 21.090408
-7.675704 0.095338 25.953976
-1.746875 -0.039078 3.089907
-3.483444 -0.055881 9.382112
-1.830592 -0.127625 3.067785
-1.794086 -0.077586 3.077375
-5.110713 -0.032611 15.445853
-5.147691 -0.083376 15.436084
-1.854180 -0.185380 3.061672
-3.552137 -0.225228 9.364296
-3.543537 -0.163676 9.366406
-5.180350 -0.204353 15.427755
-5.171641 -0.141930 15.429900
-3.519950 -0.105920 9.372523
-7.998959 -0.098157 25.868021
-6.686272 -0.185140 21.008657
-8.008757 -0.168419 25.865650
-7.971997 -0.032269 25.875015
-6.677199 -0.120104 21.010864
-6.652270 -0.059117 21.017330
-6.613731 -0.006210 21.027456
-7.930375 0.024850 25.885960
-1.854179 -0.308506 3.062094
-1.862779 -0.246933 3.059561
-3.519950 -0.344476 9.373344
-3.543537 -0.286800 9.366831
-5.147691 -0.325307 15.436916
-5.171641 -0.266797 15.430330
-1.746875 -0.454611 3.091337
-3.483444 -0.394484 9.383278
-1.794086 -0.416189 3.078541
-3.436270 -0.432906 9.396074
-5.110713 -0.375967 15.447035
-1.830591 -0.366181 3.068606
-7.930375 -0.361544 25.887289
-6.563836 -0.404533 21.042181
-7.876523 -0.405403 25.901884
-6.652270 -0.311137 21.018198
-6.613731 -0.363937 21.028688
-5.062849 -0.414969 15.459979
-7.998959 -0.238664 25.868505
-6.677199 -0.250196 21.011312
-7.971997 -0.304501 25.875952
-1.691100 -0.477638 3.106367
-3.320365 -0.463571 9.427243
-3.380458 -0.455933 9.411104
-5.006239 -0.438322 15.475227
-1.570950 -0.477527 3.138555
-3.204497 -0.432692 9.458162
-3.260308 -0.455822 9.443293
-4.827811 -0.414752 15.522939
-4.884384 -0.438210 15.507887
-1.631007 -0.485276 3.122469
-4.945312 -0.446068 15.491585
-7.612055 -0.405159 25.972754
-6.377967 -0.428747 21.092089
-6.319000 -0.404307 21.107788
-7.744289 -0.440444 25.937424
-7.675704 -0.431562 25.955790
-6.441435 -0.436934 21.075098
-6.504903 -0.428864 21.058086
-7.812837 -0.431689 25.919029
-1.467931 -0.415889 3.165957
-1.515139 -0.454397 3.153426
-3.120816 -0.344108 9.480284
-3.157322 -0.394183 9.470695
-4.742969 -0.324934 15.545382
-4.779947 -0.375662 15.535650
-3.097229 -0.286389 9.486400
-1.407874 -0.308093 3.181675
-4.719019 -0.266379 15.551603
-1.431461 -0.365813 3.175558
-6.205672 -0.249761 21.137630
-7.516544 -0.304081 25.997990
-7.489618 -0.238194 26.004984
-6.230601 -0.310748 21.131163
-6.269139 -0.363619 21.121040
-7.558167 -0.361201 25.987045
-11.023067 -0.096746 38.173000
-10.712625 -0.448072 38.257423
-10.581906 -0.125630 38.291317
-10.643167 -0.352788 38.275669
-10.598242 -0.242867 38.287338
-11.464260 -0.126463 38.054874
-11.447929 -0.243651 38.059669
-11.403001 -0.353498 38.072113
-11.023068 -0.580228 38.174667
-11.243663 -0.521827 38.115349
-11.137443 -0.565675 38.143982
-11.333549 -0.448645 38.091038
-10.802472 -0.521420 38.233574
-10.908688 -0.565463 38.205276
-8.580295 0.062557 29.892391
-8.640860 0.111852 29.876001
-9.402294 0.104592 33.079670
-8.533520 -0.001557 29.905169
-10.170006 0.214286 35.765903
-10.712610 0.196532 38.255199
-10.090825 0.149767 35.787315
-10.643167 0.101355 38.274105
-10.029607 0.065925 35.804008
-9.471496 0.160956 33.060932
-9.348804 0.031304 33.094261
-9.975610 -0.134153 35.819176
-10.598242 -0.008447 38.286533
-9.301631 -0.143488 33.107487
-9.990016 -0.030891 35.814972
-9.314186 -0.053252 33.103802
-8.492260 -0.154473 29.916727
-8.503255 -0.075557 29.913515
-8.866499 0.141219 29.815443
-8.938024 0.111578 29.796385
-9.729431 0.194538 32.991688
-8.789460 0.151160 29.836060
-10.558833 0.213927 35.661720
-11.137447 0.313329 38.140961
-10.465246 0.252733 35.686661
-11.023067 0.328094 38.171539
-10.364438 0.265744 35.713615
-9.811225 0.160643 32.969883
-9.641360 0.205905 33.015274
-10.908688 0.313540 38.202251
-10.802488 0.269706 38.230846
-10.263630 0.252919 35.740658
-9.553289 0.194701 33.038902
-8.712383 0.141361 29.856739
-9.086623 -0.155021 29.757458
-9.981090 -0.144115 32.925430
-9.075627 -0.076085 29.760162
-9.045363 -0.002029 29.768000
-9.933915 0.030764 32.937458
-10.753265 -0.134870 35.610809
-11.447929 -0.009231 38.058865
-10.738859 -0.031581 35.614300
-11.403008 0.100661 38.070541
-10.699268 0.065308 35.624603
-9.968498 -0.053855 32.928497
-11.333520 0.195993 38.088825
-11.243663 0.269286 38.112625
-10.638050 0.149262 35.640713
-9.880426 0.104151 32.951538
-8.998589 0.062171 29.780334
-8.998589 -0.372050 29.781830
-8.938024 -0.421346 29.798220
-9.880426 -0.392231 32.953247
-9.045363 -0.307973 29.769053
-9.933915 -0.318943 32.938660
-10.558833 -0.483309 35.664120
-10.638050 -0.418826 35.642670
-10.699268 -0.334948 35.625980
-9.811225 -0.448559 32.971981
-10.738859 -0.238169 35.615013
-9.968498 -0.234351 32.929119
-9.075627 -0.233973 29.760706
-8.712383 -0.450749 29.858778
-8.640860 -0.421072 29.877836
-9.553289 -0.482178 33.041233
-8.789460 -0.460690 29.838165
-9.641360 -0.493545 33.017681
-10.170006 -0.482950 35.768303
-10.263630 -0.521756 35.743324
-10.364438 -0.534767 35.716373
-9.471496 -0.448246 33.063030
-10.465246 -0.521942 35.689327
-9.729431 -0.482340 32.994019
-8.866499 -0.450891 29.817482
-9.314186 -0.233748 33.104424
-8.503255 -0.233445 29.914059
-8.533520 -0.307501 29.906221
-9.990016 -0.237478 35.815685
-10.029607 -0.334330 35.805386
-9.348804 -0.318403 33.095463
-10.090825 -0.418321 35.789272
-9.402294 -0.391790 33.081379
-8.580295 -0.371665 29.893887
-1.510176 -0.013489 3.153233
-1.335881 -0.246465 3.200759
-1.376837 -0.094629 3.189248
-1.346796 -0.168085 3.197543
-1.346798 -0.324863 3.198071
-1.423330 -0.462151 3.178066
-1.504742 -0.470935 3.156259
-1.483444 -0.511193 3.162103
-1.647055 -0.507708 3.118247
-1.631022 -0.550559 3.122698
-1.885135 -0.398935 3.054084
-1.707549 -0.540832 3.102180
-1.838734 -0.462526 3.066752
-1.778588 -0.511466 3.083035
-1.554499 -0.540690 3.143167
-1.926149 -0.247011 3.042577
-1.915230 -0.325402 3.045790
-1.885161 -0.095044 3.053032
-1.810266 -0.060192 3.072988
-1.838736 -0.031295 3.065274
-1.778597 0.017757 3.081217
-1.915223 -0.168575 3.045253
-1.707562 0.047212 3.100154
-1.554494 0.047355 3.141146
-1.483446 0.018033 3.160289
-1.631019 0.057083 3.120599
-1.131218 -0.034657 2.086434
-1.423359 -0.030882 3.176569
-1.054705 -0.171859 2.107420
-1.084763 -0.098367 2.099107
-1.043787 -0.250160 2.110663
-1.084774 -0.402164 2.100182
-1.131219 -0.465895 2.087941
-1.054714 -0.328636 2.107968
-1.376865 -0.398417 3.190287
-1.191339 -0.514941 2.071944
-1.262410 -0.544442 2.053060
-1.415452 -0.544583 2.012063
-1.486458 -0.515249 1.992919
-1.338909 -0.554311 2.032585
-1.546628 -0.466275 1.976637
-1.634076 -0.250702 1.952469
-1.623140 -0.329182 1.955672
-1.593091 -0.402637 1.963986
-1.546642 -0.035062 1.975161
-1.486501 0.014011 1.991125
-1.623153 -0.172381 1.955116
-1.593067 -0.098782 1.962938
-1.338958 0.053332 2.030515
-1.262394 0.043602 2.051070
-1.191337 0.014268 2.070171
-1.415448 0.043463 2.010027
-1.134347 -0.057994 2.009233
-1.080642 -0.251013 1.874329
-1.088111 -0.197477 1.872044
-1.181459 -0.070328 1.846596
-1.140396 -0.103763 1.857717
-1.108656 -0.147248 1.866464
-1.140361 -0.398363 1.858767
-1.181483 -0.431897 1.847785
-1.088109 -0.304553 1.872385
-1.108670 -0.354871 1.867184
-1.230008 -0.452039 1.834961
-1.334559 -0.452137 1.806920
-1.282332 -0.458769 1.820914
-1.383107 -0.432075 1.793786
-1.424202 -0.398656 1.782700
-1.476460 -0.304925 1.768327
-1.455919 -0.355157 1.774037
-1.483948 -0.251397 1.766209
-1.424175 -0.104014 1.781674
-1.455950 -0.147616 1.773324
-1.383126 -0.070519 1.792569
-1.476455 -0.197817 1.767971
-1.230042 -0.050293 1.833447
-1.334576 -0.050396 1.805482
-1.282274 -0.043633 1.819473
-1.133308 -0.108120 0.601670
-1.174480 -0.074592 0.601555
-1.073489 -0.255391 0.602177
-1.080958 -0.201849 0.601994
-1.101528 -0.151601 0.601814
-1.133328 -0.402730 0.602693
-1.174442 -0.436171 0.602794
-1.101506 -0.359151 0.602525
-1.080960 -0.308940 0.602364
-1.275419 -0.462959 0.602890
-1.327798 -0.456282 0.602863
-1.376409 -0.436179 0.602800
-1.223073 -0.456285 0.602866
-1.473074 -0.307013 1.165571
-1.449341 -0.359138 0.602534
-1.469892 -0.308920 0.602355
-1.477355 -0.255399 0.602175
-1.417517 -0.402735 0.602684
-1.469900 -0.201882 0.602000
-1.417528 -0.108099 0.601670
-1.376398 -0.074602 0.601555
-1.449303 -0.151583 0.601820
-1.275417 -0.047825 0.601462
-1.327783 -0.054538 0.601486
-1.223060 -0.054538 0.601483
-0.985894 -0.320058 0.602305
-0.991501 -0.155021 0.601741
-1.084517 -0.075577 0.601508
-1.459418 -0.442448 0.602776
-1.505432 -0.098566 0.601592
2.358330 0.001389 0.403449
3 0 1 2
3 2 3 4
3 5 6 7
3 8 7 9
3 6 10 11
3 5 3 6
3 12 2 7
3 7 4 5
3 13 14 15
3 14 13 16
3 0 8 1
3 8 0 12
3 17 18 3
3 13 18 19
3 10 3 20
3 20 18 21
3 22 23 6
3 24 9 25
3 25 9 16
3 26 18 23
3 11 20 22
3 22 21 26
3 1 9 27
3 9 1 8
3 28 27 9
3 29 15 14
3 30 31 32
3 15 18 13
3 29 31 33
3 32 31 18
3 34 35 36
3 37 35 38
3 36 39 40
3 41 39 35
3 42 43 44
3 44 45 46
3 42 41 37
3 44 47 41
3 48 49 50
3 51 49 52
3 50 46 45
3 53 46 49
3 54 55 56
3 57 39 55
3 51 55 53
3 53 39 47
3 58 43 59
3 60 61 58
3 61 45 43
3 62 63 61
3 64 65 66
3 65 67 66
3 64 62 60
3 62 67 68
3 69 70 71
3 72 70 73
3 71 67 74
3 75 67 70
3 48 76 77
3 50 63 76
3 72 76 75
3 75 63 68
3 78 79 65
3 80 79 81
3 65 82 74
3 79 83 82
3 84 85 86
3 86 87 88
3 84 89 80
3 86 83 89
3 90 91 92
3 93 94 90
3 91 88 87
3 95 88 94
3 69 96 97
3 71 82 96
3 97 95 93
3 95 82 83
3 98 85 99
3 98 100 101
3 101 87 85
3 101 102 103
3 104 105 106
3 107 108 105
3 109 105 100
3 105 102 100
3 110 111 112
3 110 113 114
3 111 108 115
3 113 108 114
3 116 91 117
3 91 103 117
3 118 117 113
3 113 103 102
3 119 107 104
3 119 120 121
3 107 122 115
3 120 122 121
3 123 124 125
3 125 126 127
3 123 120 128
3 125 129 120
3 130 131 132
3 133 131 134
3 132 127 126
3 135 127 131
3 112 136 137
3 111 122 136
3 133 136 135
3 135 122 129
3 138 124 139
3 138 140 141
3 141 126 124
3 141 142 143
3 34 144 145
3 36 146 144
3 147 144 140
3 140 146 142
3 54 148 57
3 149 148 150
3 57 146 40
3 151 146 148
3 130 152 153
3 132 143 152
3 149 152 151
3 151 143 142
3 154 155 156
3 155 157 158
3 159 160 161
3 154 161 162
3 163 164 165
3 164 162 161
3 166 155 167
3 48 168 52
3 169 170 168
3 52 171 51
3 170 171 168
3 172 173 174
3 174 175 176
3 177 174 170
3 170 176 178
3 179 180 156
3 181 182 179
3 182 175 180
3 183 176 182
3 184 56 185
3 56 171 185
3 184 183 181
3 183 171 178
3 69 186 73
3 187 188 186
3 73 189 72
3 188 189 186
3 190 191 192
3 192 193 194
3 195 192 188
3 188 194 196
3 172 197 198
3 177 199 172
3 199 193 197
3 200 194 199
3 48 201 169
3 77 189 201
3 169 200 177
3 201 196 200
3 202 90 92
3 203 204 202
3 90 205 93
3 204 206 205
3 207 208 209
3 209 210 211
3 203 209 212
3 212 211 206
3 190 213 214
3 195 215 190
3 215 210 213
3 216 211 215
3 69 217 187
3 97 205 217
3 187 216 195
3 217 206 216
3 112 218 110
3 219 220 218
3 110 221 118
3 218 222 221
3 223 165 224
3 224 161 225
3 226 224 220
3 220 225 222
3 207 160 159
3 203 227 207
3 160 225 161
3 228 225 227
3 92 229 202
3 116 221 229
3 202 228 203
3 229 222 228
3 130 230 134
3 231 232 230
3 134 233 133
3 230 234 233
3 235 167 236
3 236 162 237
3 238 236 232
3 232 237 234
3 223 164 163
3 226 239 223
3 239 162 164
3 240 237 239
3 112 241 219
3 137 233 241
3 219 240 226
3 240 233 234
3 184 150 54
3 184 242 243
3 150 244 149
3 242 244 243
3 179 158 245
3 245 157 246
3 181 245 242
3 242 246 247
3 235 155 166
3 238 248 235
3 248 157 155
3 249 246 248
3 130 250 231
3 153 244 250
3 231 249 238
3 249 244 247
3 59 42 251
3 42 37 251
3 34 252 38
3 253 252 254
3 253 251 37
3 34 145 252
3 138 255 147
3 256 257 258
3 255 257 256
3 255 252 145
3 123 259 257
3 257 259 260
3 104 259 119
3 261 262 259
3 119 259 128
3 262 263 264
3 265 257 260
3 106 109 261
3 99 266 98
3 98 261 109
3 261 266 267
3 263 262 261
3 99 268 266
3 84 269 268
3 78 269 81
3 81 269 80
3 270 269 271
3 268 269 270
3 272 266 268
3 78 64 269
3 64 60 273
3 59 251 58
3 274 251 275
3 276 251 274
3 276 273 60
3 253 277 278
3 254 252 279
3 253 279 280
3 252 255 281
3 282 256 283
3 284 281 255
3 284 285 282
3 265 286 258
3 265 260 287
3 288 264 289
3 288 260 262
3 290 287 260
3 263 261 291
3 292 267 266
3 293 261 267
3 291 261 294
3 271 295 270
3 296 295 271
3 292 272 297
3 297 268 298
3 299 274 300
3 274 275 301
3 302 271 273
3 302 276 299
3 280 303 277
3 279 304 305
3 306 303 307
3 303 280 308
3 284 304 281
3 283 286 309
3 310 309 286
3 304 284 311
3 311 282 312
3 290 313 287
3 288 289 314
3 290 314 315
3 316 314 289
3 294 317 291
3 293 292 318
3 294 318 319
3 320 318 292
3 295 296 321
3 298 321 322
3 323 321 296
3 320 297 324
3 300 301 325
3 306 325 301
3 323 302 326
3 326 299 327
3 306 328 329
3 307 308 328
3 330 305 304
3 331 308 305
3 332 328 308
3 333 310 334
3 335 309 333
3 330 311 336
3 336 312 335
3 314 337 315
3 338 316 339
3 337 314 338
3 334 313 340
3 320 341 318
3 341 342 319
3 342 341 343
3 341 320 344
3 316 317 345
3 324 322 346
3 321 323 347
3 348 347 323
3 349 346 322
3 326 350 351
3 327 325 350
3 352 350 325
3 13 353 16
3 13 354 353
3 336 353 330
3 330 353 354
3 351 19 17
3 355 19 352
3 350 352 19
3 338 356 25
3 16 334 340
3 338 25 337
3 345 356 339
3 342 356 345
3 25 356 24
3 24 343 28
3 349 357 346
3 347 348 357
3 27 357 17
3 328 355 329
3 328 332 355
3 331 354 332
3 13 355 354
3 335 353 336
3 16 333 334
3 353 335 333
3 14 31 29
3 23 14 16
3 32 15 30
3 175 173 180
3 173 154 156
3 197 193 198
3 198 193 173
3 214 213 191
3 208 159 210
3 210 154 193
3 2 1 3
3 1 27 3
3 17 3 27
3 9 7 6
3 8 12 7
3 6 3 10
3 5 4 3
3 12 0 2
3 7 2 4
3 33 358 29
3 33 30 358
3 19 18 17
3 20 3 18
3 11 22 6
3 22 26 23
3 6 23 16
3 9 6 16
3 26 21 18
3 11 10 20
3 22 20 21
3 24 28 9
3 29 358 15
3 33 31 30
3 18 31 23
3 34 38 35
3 37 41 35
3 36 35 39
3 41 47 39
3 42 59 43
3 44 43 45
3 42 44 41
3 44 46 47
3 48 52 49
3 51 53 49
3 50 49 46
3 53 47 46
3 54 57 55
3 57 40 39
3 51 56 55
3 53 55 39
3 58 61 43
3 60 62 61
3 61 63 45
3 62 68 63
3 64 78 65
3 65 74 67
3 64 66 62
3 62 66 67
3 69 73 70
3 72 75 70
3 71 70 67
3 75 68 67
3 48 50 76
3 50 45 63
3 72 77 76
3 75 76 63
3 78 81 79
3 80 89 79
3 65 79 82
3 79 89 83
3 84 99 85
3 86 85 87
3 84 86 89
3 86 88 83
3 90 94 91
3 93 95 94
3 91 94 88
3 95 83 88
3 69 71 96
3 71 74 82
3 97 96 95
3 95 96 82
3 98 101 85
3 98 109 100
3 101 103 87
3 101 100 102
3 104 107 105
3 107 115 108
3 109 106 105
3 105 108 102
3 110 114 111
3 110 118 113
3 111 114 108
3 113 102 108
3 116 92 91
3 91 87 103
3 118 116 117
3 113 117 103
3 119 121 107
3 119 128 120
3 107 121 122
3 120 129 122
3 123 139 124
3 125 124 126
3 123 125 120
3 125 127 129
3 130 134 131
3 133 135 131
3 132 131 127
3 135 129 127
3 112 111 136
3 111 115 122
3 133 137 136
3 135 136 122
3 138 141 124
3 138 147 140
3 141 143 126
3 141 140 142
3 34 36 144
3 36 40 146
3 147 145 144
3 140 144 146
3 54 150 148
3 149 151 148
3 57 148 146
3 151 142 146
3 130 132 152
3 132 126 143
3 149 153 152
3 151 152 143
3 156 155 158
3 154 162 155
3 154 159 161
3 165 164 161
3 167 155 162
3 48 169 168
3 169 177 170
3 52 168 171
3 170 178 171
3 172 198 173
3 174 173 175
3 177 172 174
3 170 174 176
3 179 182 180
3 181 183 182
3 182 176 175
3 183 178 176
3 184 54 56
3 56 51 171
3 184 185 183
3 183 185 171
3 69 187 186
3 187 195 188
3 73 186 189
3 188 196 189
3 190 214 191
3 192 191 193
3 195 190 192
3 188 192 194
3 172 199 197
3 177 200 199
3 199 194 193
3 200 196 194
3 48 77 201
3 77 72 189
3 169 201 200
3 201 189 196
3 202 204 90
3 203 212 204
3 90 204 205
3 204 212 206
3 207 159 208
3 209 208 210
3 203 207 209
3 212 209 211
3 190 215 213
3 195 216 215
3 215 211 210
3 216 206 211
3 69 97 217
3 97 93 205
3 187 217 216
3 217 205 206
3 112 219 218
3 219 226 220
3 110 218 221
3 218 220 222
3 223 163 165
3 224 165 161
3 226 223 224
3 220 224 225
3 207 227 160
3 203 228 227
3 160 227 225
3 228 222 225
3 92 116 229
3 116 118 221
3 202 229 228
3 229 221 222
3 130 231 230
3 231 238 232
3 134 230 233
3 230 232 234
3 235 166 167
3 236 167 162
3 238 235 236
3 232 236 237
3 223 239 164
3 226 240 239
3 239 237 162
3 240 234 237
3 112 137 241
3 137 133 233
3 219 241 240
3 240 241 233
3 184 243 150
3 184 181 242
3 150 243 244
3 242 247 244
3 179 156 158
3 245 158 157
3 181 179 245
3 242 245 246
3 235 248 155
3 238 249 248
3 248 246 157
3 249 247 246
3 130 153 250
3 153 149 244
3 231 250 249
3 249 250 244
3 38 252 37
3 253 37 252
3 278 275 251
3 253 278 251
3 145 147 255
3 139 257 138
3 138 257 255
3 285 255 256
3 139 123 257
3 123 128 259
3 104 261 259
3 260 259 262
3 265 258 257
3 104 106 261
3 98 266 261
3 84 80 269
3 99 84 268
3 269 64 273
3 58 251 60
3 276 60 251
3 273 271 269
3 275 278 277
3 253 280 277
3 252 281 279
3 254 279 253
3 277 301 275
3 258 286 256
3 283 256 286
3 282 285 256
3 284 255 285
3 265 287 286
3 288 262 264
3 288 290 260
3 264 263 291
3 292 293 267
3 293 294 261
3 289 264 291
3 270 295 268
3 295 298 268
3 292 266 272
3 297 272 268
3 300 274 301
3 299 276 274
3 302 296 271
3 302 273 276
3 277 303 301
3 279 281 304
3 280 279 305
3 305 308 280
3 306 301 303
3 307 303 308
3 282 283 309
3 309 312 282
3 311 284 282
3 287 313 286
3 290 315 313
3 290 288 314
3 310 286 313
3 291 317 289
3 294 319 317
3 294 293 318
3 316 289 317
3 298 322 297
3 298 295 321
3 320 292 297
3 324 297 322
3 299 300 325
3 325 327 299
3 323 296 302
3 326 302 299
3 306 307 328
3 330 331 305
3 331 332 308
3 333 309 310
3 335 312 309
3 330 304 311
3 336 311 312
3 315 337 313
3 338 314 316
3 334 310 313
3 340 313 337
3 319 342 317
3 318 341 319
3 343 341 344
3 339 316 345
3 345 317 342
3 320 324 346
3 322 321 347
3 347 349 322
3 346 344 320
3 323 326 351
3 326 327 350
3 325 306 329
3 329 352 325
3 351 348 323
3 331 330 354
3 351 350 19
3 348 351 17
3 329 355 352
3 25 16 340
3 337 25 340
3 339 356 338
3 342 343 356
3 24 356 343
3 343 344 28
3 344 346 28
3 346 27 28
3 357 27 346
3 357 348 17
3 349 347 357
3 13 19 355
3 354 355 332
3 16 353 333
3 23 31 14
3 358 30 15
3 32 18 15
3 180 173 156
3 173 193 154
3 191 213 193
3 213 210 193
3 210 159 154
